<svg xmlns="http://www.w3.org/2000/svg" viewBox="0 0 100 100" fill="none">
  <rect width="100" height="100" rx="20" fill="#10b981"/>
  <path d="M50 20C35 20 25 30 25 45C25 50 27 54 30 58C32 60 30 65 28 67C26 69 25 72 25 75C25 85 35 95 50 95C65 95 75 85 75 75C75 72 74 69 72 67C70 65 68 60 70 58C73 54 75 50 75 45C75 30 65 20 50 20Z" fill="white" opacity="0.9"/>
  <path d="M40 45C40 50 45 55 50 55C55 55 60 50 60 45C60 40 55 35 50 35C45 35 40 40 40 45Z" fill="#10b981"/>
  <path d="M35 60C35 65 40 70 45 70C50 70 55 65 55 60" stroke="#10b981" stroke-width="3" stroke-linecap="round"/>
</svg>


